<svg xmlns="http://www.w3.org/2000/svg" viewBox="0 0 327 332.96"><defs><style>.cls-1{fill:#39E840;}</style></defs><g id="Livello_2" data-name="Livello 2"><g id="Livello_1-2" data-name="Livello 1"><path class="cls-1" d="M117.56,284.26l9.49,7.84L128.4,291a5.61,5.61,0,0,1,1-.71.62.62,0,0,1,.5,0,.58.58,0,0,1,.33.32.59.59,0,0,1,0,.45,4,4,0,0,1-1.12,1.11l-8.71,6.91,4.29,1.33a17.86,17.86,0,0,1,4.18,2.22,13.33,13.33,0,0,1,3.57,3.53,10.37,10.37,0,0,1,1.67,4.09,7.74,7.74,0,0,1-.44,4.19,12.19,12.19,0,0,1-6.08,6.27q-4.62,2.44-14.37,3.38c-1.65-1.45-3.59-3.05-5.83-4.82q-8,.5-12.36-1.19a8,8,0,0,1-4.27-3.22,4.31,4.31,0,0,1-.47-3.8,4.77,4.77,0,0,1,3.38-2.7c1.76-.54,4-.29,6.62.73A26.24,26.24,0,0,1,104,311l3.3-2.71-3.64-1.09a19.07,19.07,0,0,1-3.25-1.65,10.64,10.64,0,0,1-3-2.56,6.17,6.17,0,0,1-1.24-2.87,5.8,5.8,0,0,1,.32-2.84,5.92,5.92,0,0,1,3-3.23,8.78,8.78,0,0,1,3.92-.68l.09-.3a10.1,10.1,0,0,1,4-4.38A40.78,40.78,0,0,1,117.56,284.26ZM105.94,318a34.55,34.55,0,0,0-9.08-5.8,5.48,5.48,0,0,0-3.47-.34A1.84,1.84,0,0,0,92,313a1.74,1.74,0,0,0,.25,1.73A6.82,6.82,0,0,0,95.6,317Q99.28,318.43,105.94,318Zm8.93-16a46.22,46.22,0,0,1-6.26-1.9,10.76,10.76,0,0,1-4.36-2.57,5,5,0,0,1-1.13-3.2,3.43,3.43,0,0,0-2.79,2.08,3.08,3.08,0,0,0,.4,3q1.3,1.95,5.62,3.61a47.6,47.6,0,0,0,5.32,1.63Zm-9.82,9.51c1.39.92,2.51,1.71,3.36,2.36s2.34,1.88,4.46,3.68c4.58-.28,7.19-1.24,7.83-2.91a2,2,0,0,0-.14-1.67,2.63,2.63,0,0,0-1.49-1.29,32.2,32.2,0,0,0-3.27-1q-5.49-1.47-7.14-2.1Zm18.32-16.46a43.47,43.47,0,0,0-4.94-4.79,13.65,13.65,0,0,0-3.49-2.08,5.68,5.68,0,0,0-4.18-.15,4.19,4.19,0,0,0-2.57,2.45,3.81,3.81,0,0,0,.14,3.25,5.84,5.84,0,0,0,3.27,2.5q1.62.63,7.47,2.33Zm-10.38,10c4,1.1,6.73,1.93,8.23,2.51a7.51,7.51,0,0,1,4.14,3.2,4.52,4.52,0,0,1,.34,3.95,5.07,5.07,0,0,1-2.85,2.68c-1.47.65-4.24,1.11-8.33,1.36l4.42,3.18a19,19,0,0,0,6.51-2.34,8.72,8.72,0,0,0,3.65-4.34,7,7,0,0,0,.27-3.93,7.91,7.91,0,0,0-2.24-4,12.85,12.85,0,0,0-4.74-3,53.86,53.86,0,0,0-6.18-1.87Z"/><path class="cls-1" d="M136.76,330.24l-3.16-4.59,4.59-3.17,3.18,4.59Z"/><path class="cls-1" d="M179.35,293.85l.48,1.21a10.29,10.29,0,0,0-2.79,1.75,4.86,4.86,0,0,0-1.29,2,10.79,10.79,0,0,0-.42,3.27c0,.46,0,1.08,0,1.86l.09,19.34a9.22,9.22,0,0,0,.59,4.17,1.27,1.27,0,0,0,1.05.72c.49,0,1.28-.47,2.34-1.45l.75,1-4.89,4L173.62,333a6.08,6.08,0,0,1-2.86-2.59,11.76,11.76,0,0,1-.88-5.06l-10.14,7.4q-8.27-5.67-11.3-5.72a1.82,1.82,0,0,0-1.27.44,1.19,1.19,0,0,0-.41.95,2.86,2.86,0,0,0,.47,1.49,4.06,4.06,0,0,1,.62,1.43,1.14,1.14,0,0,1-.38.84,1.25,1.25,0,0,1-.89.33,1.23,1.23,0,0,1-1-.54,2.8,2.8,0,0,1-.54-1.82,6.86,6.86,0,0,1,.76-2.77A18.75,18.75,0,0,1,148,324c.2-.25.38-.49.54-.71l3.79-5a19.68,19.68,0,0,1-5.17-5.51A11.21,11.21,0,0,1,145.7,307a13.24,13.24,0,0,1,2-6.87,13,13,0,0,1,5.81-4.92,17.9,17.9,0,0,1,7.89-1.69A19.67,19.67,0,0,1,173.28,298a19.25,19.25,0,0,1,2.73-2.37A19.05,19.05,0,0,1,179.35,293.85Zm-12.83,5.77a14.76,14.76,0,0,0-6.47-1.72,14.42,14.42,0,0,0-6.49,1.39,11,11,0,0,0-4.6,3.83,9.09,9.09,0,0,0-1.59,4.87q-.1,5.29,5.56,9.49l8.87-11.65a7.48,7.48,0,0,0-3.47-1.13,4.12,4.12,0,0,0-3.55,2c-.18.27-.35.41-.52.4a.41.41,0,0,1-.31-.16.58.58,0,0,1-.14-.39,5.05,5.05,0,0,1,.86-2.21,6.11,6.11,0,0,1,2.45-2.26,6.79,6.79,0,0,1,3.36-.82,11.77,11.77,0,0,1,4.1.95Zm-13.39,19.61-2.41,3.17,13,5.91,6.17-4.41,0-4.36Zm16.68-16.88c-.49-.56-.82-.92-1-1.07a12.86,12.86,0,0,0-1.27-1L156,315.5l13.9.26Z"/><path class="cls-1" d="M187,331.22l-4.45-3.35,3.35-4.47,4.46,3.35Z"/><path class="cls-1" d="M219.48,282.34l1.15.33a12.07,12.07,0,0,1-.18,4.23,6.42,6.42,0,0,1-1.91,3,10,10,0,0,1-3.74,2.11c-.8.27-1.79.54-3,.82L220,317.7a15.89,15.89,0,0,0,7.38-11.31l1.09.14a20.41,20.41,0,0,1-.77,6.1,17.08,17.08,0,0,1-4.22,7,18.79,18.79,0,0,1-7.74,4.63,22.41,22.41,0,0,1-9.24,1.08,15.67,15.67,0,0,1-5.23-1.5,16,16,0,0,1-4.67-3.47,14.76,14.76,0,0,1-3.22-5.62,16.84,16.84,0,0,1-.79-6.94,22.27,22.27,0,0,1,2-7.23,33.06,33.06,0,0,1,3.43-5.46l-3.14.85a9.45,9.45,0,0,0-3.56,2,8.5,8.5,0,0,0-2.52,3.27,12.58,12.58,0,0,0-.67,4.77l-1.13-.24a17.54,17.54,0,0,1,.38-6.14,12.45,12.45,0,0,1,3.35-5.53,15.82,15.82,0,0,1,6.15-3.58,68.46,68.46,0,0,1,9.47-1.92,71.47,71.47,0,0,0,9.35-1.87,5.47,5.47,0,0,0,2.35-1.34A8.69,8.69,0,0,0,219.48,282.34ZM200.9,294.5l-1.35.31a22.07,22.07,0,0,0-3,7.24,17,17,0,0,0,.49,8.53,14.28,14.28,0,0,0,9.35,9.38,8.23,8.23,0,0,0,1.39-3.16,12.57,12.57,0,0,0-.86-3.93Zm9.73-1.48c-1.63.3-3.08.52-4.36.67l4.84,14.7a16.86,16.86,0,0,1,.87,3.35,5,5,0,0,1-.45,1.91,56.46,56.46,0,0,1-3.92,6.63,21,21,0,0,0,3.79.25,17.59,17.59,0,0,0,4.44-.81,30.45,30.45,0,0,0,3.13-1.33Z"/><path class="cls-1" d="M235.6,315.82l-5.3-1.72,1.72-5.31,5.31,1.71Z"/><path class="cls-1" d="M19,60.51l1.46-.22A30.42,30.42,0,0,0,23,69.21a16.89,16.89,0,0,0,4.57,5.52q1.48,1.18,5.36,4.12,2.06,1.56,4.2,3.28,6.62,5.28,8.58,9.54a25.64,25.64,0,0,1,1.87,13.15q-.57,6.24-3,9.35a8.22,8.22,0,0,1-1.37,1.39,24.8,24.8,0,0,1-2.4,1.55,11.91,11.91,0,0,0-3.36,2.6,3.83,3.83,0,0,0-.92,2.08,3.59,3.59,0,0,0,.63,1.91l-1.2.64a10.79,10.79,0,0,1-2.18-4.41,7.16,7.16,0,0,1,1.67-5.71,10.39,10.39,0,0,1,2.46-2.14,13.3,13.3,0,0,0,3-2.43,5.16,5.16,0,0,0,1.24-4,5.51,5.51,0,0,0-2.2-3.65,11.36,11.36,0,0,0-6.68-2.32c-3.71-.18-6.57,1-8.55,3.45a10.11,10.11,0,0,0-1.13,1.91l-1.28-.14a10.66,10.66,0,0,1,2-5.31,8.77,8.77,0,0,1,1.86-1.76A12.77,12.77,0,0,1,29,96.49a12,12,0,0,0-3.91-1.72,7.68,7.68,0,0,0-4,.29A6.23,6.23,0,0,0,18.21,97a5.58,5.58,0,0,0-1.05,3H15.81a12.93,12.93,0,0,1,.41-3.74,8.86,8.86,0,0,1,1.56-2.86,10.73,10.73,0,0,1,4.51-3.06,17.32,17.32,0,0,1-3.76-4.18,13,13,0,0,1-1.51-5,40,40,0,0,1,.18-8.74A25.27,25.27,0,0,1,13.72,79a20,20,0,0,1-5.24,4.43,18.2,18.2,0,0,0-4.59,3.61A6.24,6.24,0,0,0,2.3,91a3.4,3.4,0,0,0,1,2.74A1,1,0,0,0,4,94a.77.77,0,0,0,.54-.29,2.65,2.65,0,0,0,.37-.9,3,3,0,0,1,.48-1,2.44,2.44,0,0,1,1.69-.92A2.64,2.64,0,0,1,9,91.43a2.79,2.79,0,0,1,1.09,1.92,2.76,2.76,0,0,1-.64,2.13,3.72,3.72,0,0,1-2.87,1.36A5.32,5.32,0,0,1,2.9,95.51,8.19,8.19,0,0,1,0,89.3a10.78,10.78,0,0,1,2.5-7.59,49.85,49.85,0,0,1,7.05-6.42,39,39,0,0,0,6.16-5.76,14.68,14.68,0,0,0,2.48-4.22A15.85,15.85,0,0,0,19,60.51Zm.65,6.12a25.42,25.42,0,0,0-.81,7.52,17.56,17.56,0,0,0,2.26,7,26.64,26.64,0,0,0,6.61,7l10.69,8.31a19.33,19.33,0,0,1,5.29,5.82,12.33,12.33,0,0,1,1,5.64,22.33,22.33,0,0,0,1-5.42,11.24,11.24,0,0,0-1.24-5.17,15.78,15.78,0,0,0-4.39-5l-11-8.49a27,27,0,0,1-7.29-8.51A23.64,23.64,0,0,1,19.64,66.63Z"/><path class="cls-1" d="M56.53,52.64,71,70.34a57.49,57.49,0,0,0-3.2,6.58,16.33,16.33,0,0,0-.93,3.61,41.75,41.75,0,0,0-8.05,1.77,17,17,0,0,0-4.45,2.45l-.62-.28a4.76,4.76,0,0,0,0-2.3,10.14,10.14,0,0,0-1.89-3l-10.65-13A28.32,28.32,0,0,0,45.34,56,34.5,34.5,0,0,0,56.53,52.64Zm1.62,24.42,8.25-2.53-12.31-15c-2.68.68-4.54,1.2-5.58,1.58A14.85,14.85,0,0,0,46,62.25Z"/><path class="cls-1" d="M66.57,27.73l.42.68a7.77,7.77,0,0,0-1.31,4.4,12,12,0,0,0,2,5.23L81.9,61.23l4.33.4L86.81,60l1.22.54-2.8,7.16A31.59,31.59,0,0,0,80,67.12a16.56,16.56,0,0,0-3.85.67l-.35-.57a3.77,3.77,0,0,0,.45-1.82,5.45,5.45,0,0,0-.41-1.94c-.09-.23-.71-1.29-1.84-3.17L62.62,41.66a22.63,22.63,0,0,0-2.21-3.19,5.94,5.94,0,0,0-1.81-1.33,10.36,10.36,0,0,0-3-.76l.1-.77a10.62,10.62,0,0,1,6,.15,15.19,15.19,0,0,1,1.81-5A10.7,10.7,0,0,1,66.57,27.73Z"/><path class="cls-1" d="M85.46,18.29l.34.72A7.88,7.88,0,0,0,84,23.25a11.88,11.88,0,0,0,1.47,5.42L97.16,53.23l4.27.86.74-1.57,1.16.66L99.78,60a31.79,31.79,0,0,0-5.12-1.12,16,16,0,0,0-3.9.26l-.29-.61a3.81,3.81,0,0,0,.64-1.76,5.29,5.29,0,0,0-.21-2c-.06-.24-.56-1.35-1.49-3.35L80.05,31.73a23.11,23.11,0,0,0-1.85-3.41,6,6,0,0,0-1.66-1.51,10.18,10.18,0,0,0-2.92-1.07l.19-.76a10.62,10.62,0,0,1,5.9.78A15.47,15.47,0,0,1,82,21,10.88,10.88,0,0,1,85.46,18.29Z"/><path class="cls-1" d="M98.2,30.63l4.52-7a11.43,11.43,0,0,1,4.18,1.92,7.08,7.08,0,0,1,1.83,3.21l.2.64,6.59-9.8q6,3.33,7.74,8.76a13.33,13.33,0,0,1,.34,6.29,18.45,18.45,0,0,1-2.94,7,93.09,93.09,0,0,1-8.11,10.07c-1.68,1.9-2.66,3.07-3,3.53a7.73,7.73,0,0,0-1.24,2.57,3.13,3.13,0,0,0,.09,1.71,3.81,3.81,0,0,0,2.34,2.29,6,6,0,0,0,4.29,0,6.24,6.24,0,0,0,2.7-1.52,3.15,3.15,0,0,0,.69-1.58,4.42,4.42,0,0,1,.51-1.52,1.52,1.52,0,0,1,.81-.58,1.42,1.42,0,0,1,1,0,1.15,1.15,0,0,1,.61.74,2.52,2.52,0,0,1-.79,2.27,9.58,9.58,0,0,1-4.85,3.13,8,8,0,0,1-5.67,0,5.12,5.12,0,0,1-3-3.21,6.31,6.31,0,0,1,.7-4.84,9.42,9.42,0,0,0,.77-1.78,8.3,8.3,0,0,0,.23-2.33,12.23,12.23,0,0,0-.6-2.75L103.83,34a8.52,8.52,0,0,0-1.91-3.76,1.48,1.48,0,0,0-1.39-.46c-.32.1-.67.49-1,1.15a4.86,4.86,0,0,1-.27.47Zm11.16.09,5.2,16.57a20,20,0,0,0,3.88-8,13.61,13.61,0,0,0-.2-6.68,12.42,12.42,0,0,0-5.63-6.7Z"/><path class="cls-1" d="M179,.69l10.09,13.77L179,20.75a22.81,22.81,0,0,1,6.52,6.19,26,26,0,0,1,3.62,9,16.7,16.7,0,0,0,1.19,3.89A8.2,8.2,0,0,0,192,41.8l3.14-2.48,1,1.13-7.63,6a9.63,9.63,0,0,1-3.11-3.1q-.67-1.1-2.32-7.34a21.29,21.29,0,0,0-2.38-5.68,12.75,12.75,0,0,0-3.18-3.61,19.39,19.39,0,0,0-4.64-2.31l-2.1,1.3-.44,12.71a36.21,36.21,0,0,1,5.79,2.8l3.27-2.68.94,1.1-8.17,6.25a42.26,42.26,0,0,0-7.43-3.35,23.94,23.94,0,0,0-6.4-1.1,22.86,22.86,0,0,0-7.86,1.07A17.24,17.24,0,0,0,146,45l-.82-.76a22.86,22.86,0,0,1,6.31-5.51,20.38,20.38,0,0,1,7.64-2.22l0-1.37a12.88,12.88,0,0,0-.6-4.87,12.56,12.56,0,0,0-2.65-4,20.77,20.77,0,0,0-4.14-3.53,21.56,21.56,0,0,0-4-1.79l0-1.25A29.91,29.91,0,0,0,154,16.54l5.89-3.66a20.15,20.15,0,0,0-.36-5.65,5.46,5.46,0,0,0-2-2.9A6,6,0,0,0,154,3.07a6.15,6.15,0,0,0-2.19.29,12.25,12.25,0,0,0-2.47,1.3l-1-.77A15.12,15.12,0,0,1,152.76.72,11.36,11.36,0,0,1,157.51,0a10.09,10.09,0,0,1,5.2,1.43,7.87,7.87,0,0,1,3,3.53,10.31,10.31,0,0,1,.58,3.82ZM159.85,14.6l-7,4.35A19.83,19.83,0,0,1,156,20.89a42.35,42.35,0,0,1,3.5,3.18ZM170,8.09l-3.75,2.4L165.32,37a26.78,26.78,0,0,1,3.64,1Zm4.74-3-3.3,2.1-.58,16.89,12.24-7.56Z"/><path class="cls-1" d="M225.33,27.51l-6.28,22a56.92,56.92,0,0,0-7.24,1.11,16.65,16.65,0,0,0-3.49,1.29,42.85,42.85,0,0,0-6-5.6,16.67,16.67,0,0,0-4.55-2.26l-.12-.67a4.94,4.94,0,0,0,1.9-1.3,10.27,10.27,0,0,0,1.37-3.27l4.62-16.14a28.36,28.36,0,0,0,10.66-2.43A34.57,34.57,0,0,0,225.33,27.51ZM206.19,42.75,213,48.09l5.34-18.68q-3.13-2.73-4.48-3.69a16.55,16.55,0,0,0-2.37-1.38Z"/><path class="cls-1" d="M248,32.45l6.55,8.22,6.38-.05-3.06,6.17-4.46-3.4L247.2,55.83a16.91,16.91,0,0,0-1.66,4.26,12.3,12.3,0,0,0,.34,4.2c.59,2.82.67,4.66.23,5.54a3.9,3.9,0,0,1-2.5,1.9c-1.23.4-4.06.54-8.5.44a25.49,25.49,0,0,0-3-2.71,18.67,18.67,0,0,0-3-1.9,36.44,36.44,0,0,0-9-2.85l.07-1.12,10.24-4.36-4.18-7.87L236,31.52A34.16,34.16,0,0,0,248,32.45ZM227,62a42.12,42.12,0,0,1,6,2.27,17.59,17.59,0,0,1,3.73,2.49A21.69,21.69,0,0,1,240,70.33l1.48-.15a34.34,34.34,0,0,1-2.26-8.07,13.5,13.5,0,0,1,.63-5.49ZM247.8,40.57l-6.21-6.28-8.89,18,2.59,4.94,5.47-2.4Z"/><path class="cls-1" d="M278.17,51l1,13.21-16.73-.32-3.29,4.5,4.08,6.46,5.81.18v1.14L257,76a39,39,0,0,0-2.66-4.82,44.33,44.33,0,0,0-3.64-4.47l.45-.62a3.08,3.08,0,0,0,2-.4,13.64,13.64,0,0,0,2.58-2.94l10.32-14.14q2.93.85,5,1.28C272,50.05,274.42,50.45,278.17,51Zm-5.83.1-.47-.08-8.19,11.22,9.84.19Z"/><path class="cls-1" d="M301.91,72.18l-.6,7.21-6.19-.33.69-6.2-4.09-.17L279.21,85.36l.72,4.23,4,.45-.19,1.19-10-1A26.64,26.64,0,0,0,273,85a15.37,15.37,0,0,0-1.56-3.7l.47-.47a4.91,4.91,0,0,0,2.6-.13,10.64,10.64,0,0,0,2.88-2.33l8.77-8.88a6.32,6.32,0,0,0,1.83-2.6,1.47,1.47,0,0,0-.27-1.37,3.31,3.31,0,0,0-2.21-.45l.1-1.16,8.42.54a15.58,15.58,0,0,1,.11,5,4.52,4.52,0,0,1-1.35,2.24Z"/><path class="cls-1" d="M309.88,100l1.21,7.92-10.39,7.62a13.42,13.42,0,0,0-3.76-3,20.68,20.68,0,0,0-5.55-1.78,19.71,19.71,0,0,0-.82-4.28,12.18,12.18,0,0,0-1.67-3.16,8.06,8.06,0,0,0-4.43-3.09,2.64,2.64,0,0,1-1.23-.58,1.22,1.22,0,0,1,.22-1.42,1.72,1.72,0,0,1,1.17-.06c.34.06,1,.11,1.88.18l4.43.2,6.55.08-1.05-7.52,9.2-6.74a19.35,19.35,0,0,0,4.69,2.7,15.44,15.44,0,0,0,4.72.81,55.69,55.69,0,0,0,1.85,6.46,13,13,0,0,0,1.56,2.91A4.17,4.17,0,0,0,320.65,99a2,2,0,0,0,1.83-.16,1.56,1.56,0,0,0,.53-1.14,2.87,2.87,0,0,1,1-2.19,2.11,2.11,0,0,1,1.53-.48,1.58,1.58,0,0,1,1.14.6,2,2,0,0,1,.28,1.71,3.06,3.06,0,0,1-1.25,1.78,6.52,6.52,0,0,1-2.4,1.07,17.43,17.43,0,0,1-3.87.21Zm-6.13-.08-12.33-.11a19.22,19.22,0,0,1,2,1.63,12.35,12.35,0,0,1,1.42,1.57,14.07,14.07,0,0,1,2.44,7.27l7.16-5.24ZM302.88,94l.73,4.66,11.09.14a13,13,0,0,1-2.56-2.52,12.46,12.46,0,0,1-2.3-7.38Z"/><path class="cls-1" d="M195.67,134.65c-.09-.32-.17-.64-.24-1-1,3.86-2.35,8.15-5.87,10-5.18,2.78-12.12-1.25-17.28,1.57a4.43,4.43,0,0,0,.62-4.06,18.85,18.85,0,0,0-1.85-3.84,27.61,27.61,0,0,1-3.17-15.72c.3-3.08,1-6.53-.81-9-1.34-1.78-3.63-2.49-5.7-3.28a37,37,0,0,1-14.39-10,32.74,32.74,0,0,0-5.1-5.29,10.32,10.32,0,0,0-1.54-.9c-.38-.17-1.14-.63-1.51-.31a11.67,11.67,0,0,0-1.27,1.45c-.43.51-.85,1-1.26,1.55a56.52,56.52,0,0,0-4.44,6.61,57.87,57.87,0,0,0-3.47,7.18,57.26,57.26,0,0,0-2.42,7.59,55,55,0,0,0-1.33,7.85c-.13,1.31-.21,2.63-.24,3.94-.1,4.54.49,9.43,3.5,12.82a32.42,32.42,0,0,1,1.93-12.38c2.5,2.38,2.33,6.4,1.55,9.77s-2,6.9-.91,10.19a8.1,8.1,0,0,0,10.47,4.71c1.91-.83,3.72-2.47,5.77-2.06a4.24,4.24,0,0,1,3,3.24,12.49,12.49,0,0,1,0,4.64c-.54-1.41-.68-3-1.63-4.2s-3.21-1.4-3.71,0a2.94,2.94,0,0,0,0,1.53,46,46,0,0,0,1.77,6.3,6.55,6.55,0,0,0,6.66,5.14,50.73,50.73,0,0,0,21.83-1.89c4.38-1.38,9-3.8,10.49-8.16a4.64,4.64,0,0,0-.26-4.1c-.81-1.17-2.74-1.56-3.67-.49-.7.82-.59,2-.6,3.1s-.37,2.37-1.41,2.63a1.78,1.78,0,0,1-2-1.15,3.48,3.48,0,0,1,.1-2.44,7,7,0,0,1,8.31-4.15c2.61.81,4.63,3.16,7.34,3.49,3.61.43,6.51-2.84,8.47-5.91a4.63,4.63,0,0,0,1-3.06,5.32,5.32,0,0,0-1.61-2.54A23,23,0,0,1,195.67,134.65Zm-33.15,5.59c1.28-2.28,3.16-4.11,5.3-2.35a6.17,6.17,0,0,1,1.64,2.69,33.9,33.9,0,0,1,2,8.25,4.44,4.44,0,0,1-.24,2.53c-.61,1.17-2,1.62-3.36,1.77A9.16,9.16,0,0,0,164,154c-.74.46-1.48,1.23-2.32,1s-1.14-1.38-1.19-2.3a30.37,30.37,0,0,1,.35-8.14A17.1,17.1,0,0,1,162.52,140.24Zm-30.61-21.4-.36.56a11.29,11.29,0,0,0-1.63,4.52,9.35,9.35,0,0,1-2.15-2.76,1.55,1.55,0,0,1-.23-1c.08-.42.45-.7.75-1,.71-.73,3.14-6.54,4.4-3.33a2.49,2.49,0,0,1-.14,1.89A7.25,7.25,0,0,1,131.91,118.84Zm12.75,25a12.13,12.13,0,0,1-5.16-.14,7.58,7.58,0,0,1-4.61-3.39c-1.39-2.42-1-5.48,0-8.09,3.07-8.14,14.54-16.91,22.15-8.42a8.3,8.3,0,0,1,2.18,4.62,10.06,10.06,0,0,1-1.16,5.3,18.68,18.68,0,0,1-12.73,10Z"/><path class="cls-1" d="M190.83,158c-1.53-.17-2.17,1.18-2.8,2.76a18.79,18.79,0,0,0-1,7.07c0,4.31-.25,4.65-4.73,6.16-1.33.45-1.25,1.14-.7,2.07a4.76,4.76,0,0,0,.8.82c-1.54,1.36-2.9,3.49-4.66,3.9-3.88.9-7.08,3.25-11,4.15a12.5,12.5,0,0,1-10.18-1.82c-1.24-.79-2.42-.73-3.58-1.17s-1.4-2.68-3.38-2.16a2.52,2.52,0,0,1-3.46-2.37c-.32-2.91-2.21-4.65-4.15-6.36-2.49-2.19.45-5.65-2-7.88-.4-.37-.1-1.45-.23-2.18-.05-.27-.41-.49-.63-.73-.17.32-.47.63-.47.95-.05,2.11,0,4.23,0,6.34a51.36,51.36,0,0,0,.07,6.33,9.05,9.05,0,0,0,1.55,4.5c1.79,2.2,3.77,4.52,6.18,5.87a9.6,9.6,0,0,1,4.27,4.72c1.89,4.14,5.18,6.12,9.52,7.44,3.31,1,5.71.94,8-1.63,6.28-.45,8.59-6.24,12.79-9.49.17-2.78,2.7-3.38,4.49-4.24,2.33-1.12,4.29-2.58,5-4.89,1.44-4.92,2.67-9.92,2.44-15.17C192.76,159.34,192,158.08,190.83,158Z"/><path class="cls-1" d="M166.76,85c7.25-.08,14.62.09,21.05,3.27,5.47,2.71,9.77,7.41,12.84,12.69A33.17,33.17,0,0,1,205.52,118a2,2,0,0,1-.49,1.52,1.92,1.92,0,0,1-1.06.35,28.14,28.14,0,0,1-4.68.15,3.58,3.58,0,0,1-1.77-.41,3.5,3.5,0,0,1-1.24-1.74,20.46,20.46,0,0,1-1.61-8.17,3.89,3.89,0,0,0-2,3.39,29.5,29.5,0,0,1-.25,4.1,1.7,1.7,0,0,1-.47.91,2.06,2.06,0,0,1-1.85.12c-8.29-2.19-16.56-4.63-24.3-8.33s-15-8.76-20.25-15.5a6.54,6.54,0,0,1-1.66-3.38c-.23-3.14,5-4.52,7.34-5.07a52.69,52.69,0,0,1,11.49-.91Z"/><path class="cls-1" d="M201.53,123.07a2.54,2.54,0,0,0-2.72,2.36c-.21,1.92-.05,3.88-.05,7.21-.09,2.24-.62,5.93,3.19,8.41,1.33.87,1.15.61,1.56-.6,1.64-4.81,1.4-9.88,2.25-14.8C205.93,124.69,203,123.06,201.53,123.07Z"/><path class="cls-1" d="M197.23,125.43l0,.06a1.17,1.17,0,0,1,.14.72l-.06,2.71a.35.35,0,0,1-.07.26.33.33,0,0,1-.24.08,1.6,1.6,0,0,1-1.46-1.67C195.58,127.12,196.53,124.59,197.23,125.43Z"/><path class="cls-1" d="M178.74,166.85a1,1,0,0,1,.46-.3,13.79,13.79,0,0,1,1.3-.6.42.42,0,0,1,.6.31c.13.4.28.8.42,1.19a2.89,2.89,0,0,1,.33.87.27.27,0,0,1,0,.13.32.32,0,0,1-.12.08l-1.63.58c-.58.21-.68-.11-.78-.6a11.18,11.18,0,0,0-.56-1.22A.51.51,0,0,1,178.74,166.85Z"/><path class="cls-1" d="M175.15,168.25a.79.79,0,0,1,.5-.29l1.32-.38c.14,0,.33-.07.43,0a.49.49,0,0,1,.08.18c.17.61.31,1.23.44,1.85a1.19,1.19,0,0,1,.07.56c-.07.18-.65.18-.81.21-.33.06-.66.13-1,.22s-.44.1-.57,0a.51.51,0,0,1-.12-.27l-.37-1.65a.78.78,0,0,1,0-.34A.3.3,0,0,1,175.15,168.25Z"/><path class="cls-1" d="M154.45,170.4l.1-.07a1.48,1.48,0,0,1,.93,0c.42.07.84.16,1.26.25a.44.44,0,0,1,.29.14.45.45,0,0,1,0,.38,10.58,10.58,0,0,0-.19,2.44c0,.12,0,.26-.1.33a.38.38,0,0,1-.26,0l-2.44-.38a.07.07,0,0,1-.06,0,0,0,0,0,1,0-.06c.08-.83.16-1.65.26-2.48A.82.82,0,0,1,154.45,170.4Z"/><path class="cls-1" d="M170.32,169.45c.2-.23.74-.3,1-.36a9,9,0,0,1,1.45-.27.34.34,0,0,1,.31.08.29.29,0,0,1,0,.16l.31,2.54a.49.49,0,0,1-.06.39.57.57,0,0,1-.32.12l-1.74.22c-.18,0-.39,0-.51-.1a.59.59,0,0,1-.1-.26l-.41-2.07a.75.75,0,0,1,0-.3A.34.34,0,0,1,170.32,169.45Z"/><path class="cls-1" d="M150.39,170.09a1.51,1.51,0,0,1,.76,0,5.55,5.55,0,0,1,1.07.17c.08,0,.17.05.19.12a.48.48,0,0,1,0,.12l-.4,1.84c0,.09,0,.2-.14.25a.42.42,0,0,1-.25,0l-1.26-.27c-.13,0-.28-.07-.33-.2a.45.45,0,0,1,0-.2l.21-1.53a.51.51,0,0,1,.06-.21A.2.2,0,0,1,150.39,170.09Z"/><path class="cls-1" d="M159.12,170.33a.34.34,0,0,1,.12-.12,1.94,1.94,0,0,1,.8-.06l1.91,0a.42.42,0,0,1,.19,0c.12.06.13.24.13.38a17.63,17.63,0,0,0,.13,2.91.54.54,0,0,1-.08.47.53.53,0,0,1-.48.08,13.39,13.39,0,0,0-2.28-.1c-.17,0-.38,0-.47-.14a.52.52,0,0,1-.06-.28l0-2.74A.9.9,0,0,1,159.12,170.33Z"/><path class="cls-1" d="M164.48,170a.43.43,0,0,1,.26-.07l.85-.06,1.7-.12a.47.47,0,0,1,.29,0c.14.08.17.27.19.43a15.54,15.54,0,0,0,.41,2.44c0,.21.09.47-.07.62a.76.76,0,0,1-.3.1c-.82.11-1.63.19-2.44.36-.19,0-.47.18-.65.07s-.08-.49-.09-.61c0-.34,0-.67-.07-1,0-.65-.09-1.29-.13-1.94A.34.34,0,0,1,164.48,170Z"/><path class="cls-1" d="M147.07,168.81a.6.6,0,0,1,.52.07,8,8,0,0,0,1.18.46c-.12,0-.17.19-.22.31s-.33,1.8-.53,1.79a2.36,2.36,0,0,1-.76-.26,6.88,6.88,0,0,1-.77-.38.44.44,0,0,1-.16-.14.42.42,0,0,1,0-.33l.4-1.09A.68.68,0,0,1,147.07,168.81Z"/><path class="cls-1" d="M177.36,176c.07-.21.4-.26.58-.33l.93-.34a.25.25,0,0,1,.19,0,.24.24,0,0,1,.11.15c.2.59.39,1.19.55,1.8a.2.2,0,0,1,0,.13c0,.06-.09.09-.16.11-.23.08-1.54.66-1.65.34l-.52-1.51a.72.72,0,0,1-.06-.29A.08.08,0,0,1,177.36,176Z"/><path class="cls-1" d="M148.5,175.84a.48.48,0,0,1,.29,0l1.21.27c.06,0,.14,0,.16.1a.17.17,0,0,1,0,.17,3.58,3.58,0,0,0-.19.55c0,.21,0,.42-.08.62a3.44,3.44,0,0,0-.05.45c0,.1,0,.33-.11.36s-.23-.13-.33-.16a2,2,0,0,0-.42-.1,3.33,3.33,0,0,1-.81-.21.41.41,0,0,1-.25-.25.5.5,0,0,1,0-.21c.11-.44.22-.87.37-1.29A.48.48,0,0,1,148.5,175.84Z"/><path class="cls-1" d="M173.77,178.07c.08-.1.24-.12.42-.16.33-.08,1.34-.63,1.47-.06.07.34.09.7.17,1.05a2.32,2.32,0,0,1,.17.78c-.07.38-.75.24-1,.27l-.68.08c-.16,0-.24.05-.3-.14s-.07-.47-.11-.71-.16-.56-.19-.85A.29.29,0,0,1,173.77,178.07Z"/><path class="cls-1" d="M152.8,177.57a.16.16,0,0,1,.08-.06.31.31,0,0,1,.19,0c.58.08,1.16.18,1.73.28a.16.16,0,0,1,.12,0,.22.22,0,0,1,0,.16,10.17,10.17,0,0,1-.15,1.34c0,.24,0,1-.35,1.09a.49.49,0,0,1-.24,0l-1-.26c-.14,0-.69-.09-.76-.24s.08-.66.11-.92l.15-1.13A.51.51,0,0,1,152.8,177.57Z"/><path class="cls-1" d="M169.85,179.21a.24.24,0,0,1,.08-.06,1.89,1.89,0,0,1,.63-.09l.77-.13c.17,0,.34-.09.52-.11s.25.28.26.44c0,.33.08.65.12,1s.29,1.17.05,1.24a5,5,0,0,1-.78.05,11.49,11.49,0,0,0-1.18.1.22.22,0,0,1-.14,0c-.24-.12-.15-.73-.18-1s-.09-.53-.13-.8S169.73,179.37,169.85,179.21Z"/><path class="cls-1" d="M157,178.94l.06-.06a.58.58,0,0,1,.32-.06c.64,0,1.28,0,1.91,0,.31,0,.29.33.27.55-.09.72,0,1.42-.06,2.15a.28.28,0,0,1-.07.22.29.29,0,0,1-.21,0c-.71,0-1.42,0-2.14-.07a.46.46,0,0,1-.23-.06.44.44,0,0,1-.07-.39,8.9,8.9,0,0,0,.08-1.55,1.83,1.83,0,0,1,.06-.66A.44.44,0,0,1,157,178.94Z"/><path class="cls-1" d="M165.63,179.43c.15-.16.46-.07.65-.06s.66,0,1,0h.49c.11,0,.33-.08.42,0s.09.34.09.47,0,.43,0,.65.08.69.11,1c0,.17.17.62,0,.72a.66.66,0,0,1-.15,0l-1.29.14-1.09.17a.2.2,0,0,1-.11,0c-.19-.06-.11-.59-.12-.74,0-.35,0-.69,0-1a10.71,10.71,0,0,0-.07-1.13A.38.38,0,0,1,165.63,179.43Z"/><path class="cls-1" d="M161.21,179.17a.44.44,0,0,1,.27-.07q.93,0,1.86,0a.26.26,0,0,1,.21.07.27.27,0,0,1,0,.16l.14,2.75a.22.22,0,0,1,0,.14.29.29,0,0,1-.19.07,12.64,12.64,0,0,1-2.13-.06.33.33,0,0,1-.26-.11.38.38,0,0,1,0-.18c0-.84,0-1.67,0-2.51A.39.39,0,0,1,161.21,179.17Z"/><path class="cls-1" d="M92.1,180.39A2.58,2.58,0,0,1,95,182.23c.44,1.6-.39,3.28-1.38,4.61s-2.19,2.6-2.65,4.2a2.68,2.68,0,0,0,.19,2.22,1.41,1.41,0,0,0,2,.4,2.46,2.46,0,0,0,.57-1.48c.41-2.26,2-4.63,4.35-4.6a6.69,6.69,0,0,1,3.71,1.74c16.87,12.58,36.59,20.72,56.36,27.93-2.13.55-3.67,2.58-5.83,3s-4.38-1-6.46-2c-3.87-1.84-8.29-2.1-12.41-3.3-6-1.73-11.32-5.41-17.42-6.7-2.84-.6-5.77-.66-8.59-1.34s-5.65-2.14-7-4.69c1.26-.83,2.92-.37,4.35.11l34.47,11.62c.18-1.2-1.1-2.06-2.21-2.56-8.32-3.8-17.22-6.2-25.56-10-4.75-2.14-9.73-4.79-14.87-3.95-3.19.53-6,2.36-9,3.59s-6.65,1.81-9.3-.05a1.81,1.81,0,0,1-1-1.54,2.06,2.06,0,0,1,.55-1c4.19-4.94,10.48-8.44,12.63-14.56a7,7,0,0,0-4.19,2c.59-.61.84-2,1.42-2.76a8.12,8.12,0,0,1,2.63-2.28A4.52,4.52,0,0,1,92.1,180.39Z"/><path class="cls-1" d="M192.8,216.22h0c-18.92,8.28-39.36,12.82-58,21.78-7.77,3.75-15.2,8.26-23.28,11.27-4.2,1.56-8.77,2.85-11.81,6.14A50.25,50.25,0,0,0,96,260.76a9.32,9.32,0,0,1-5,4c-2.12.53-4.73-.5-5.29-2.61s.81-3.94,1.19-6a13,13,0,0,0-.54-5.49L84,240.88a9,9,0,0,0-1.48,8.94c-1.65-2.09-3.33-4.26-4-6.83a7.58,7.58,0,0,1,.37-5c.91-2,2-2.49,4-1.88,3.74,1.13,6.45,4.25,9.93,5.9a11.73,11.73,0,0,0,8.45.72,9.29,9.29,0,0,0,6-5.77,30.48,30.48,0,0,1-13.21,2.59c-1,0-2.15-.24-2.5-1.15a1.84,1.84,0,0,1,1.21-2.19,5.92,5.92,0,0,1,2.75-.11c8.62.94,17.3-.86,25.7-3a297.47,297.47,0,0,0,42.8-14.82c-.24,3.5-6.95,2.9-7.67,6.32,6.17-1.43,11.88-4.36,17.83-6.53S186.72,214.48,192.8,216.22ZM98.55,249.29a28.4,28.4,0,0,0,7.91-1.82c10.3-3.66,19.85-9.21,30.13-12.94,1.54-.55,3.22-1.17,4.07-2.57a3.33,3.33,0,0,0-2.87-.33c-6.32,1.34-11.67,5.4-17.58,8s-12.2,3.76-17.75,6.82a9.06,9.06,0,0,1-2.94,1.25c-2,.28-3.77-1-5.45-1.84-.66-.35-5.53-2.4-4.69-.08a2.25,2.25,0,0,0,.8,1,11.69,11.69,0,0,0,4.41,2.18A13.22,13.22,0,0,0,98.55,249.29Z"/><path class="cls-1" d="M251.37,236.72a4.54,4.54,0,0,0-3-2.37,5.86,5.86,0,0,0-4.74,1.19c-2.42,1.87-3.46,5.19-6,6.89-2,1.3-4.44,1.41-6.75,1.89a1.36,1.36,0,0,0-.76.34c-.74.8.85,2.07.39,3.05l-21.52-9.47c2.92-1.09,6,.65,8.86,1.93a22.14,22.14,0,0,0,11.74,2.13,13.85,13.85,0,0,0,10.06-6c-18,3.57-36.55-1.3-53.58-8a34,34,0,0,0-6.77-2.17c-1.31-.22-8.82-.23-8.15,2.42a2.58,2.58,0,0,0,1.39,1.42c3.77,2.12,8,3.22,12,4.87s7.94,4,10,7.8a2.18,2.18,0,0,1,2.36-1.33,6.83,6.83,0,0,1,2.68,1.14,57.42,57.42,0,0,0,13.22,5.72c1.4.41,3.17.65,4.08-.49.25-.32.43-.73.8-.89a1.53,1.53,0,0,1,1.26.22l5.27,2.66-2.18,1c4.55,2.22,7.76,6.4,11,10.3a11.33,11.33,0,0,0,3.51,3.18,4.07,4.07,0,0,0,4.46-.34c2.16-2,.53-5.85,2.08-8.35-1.08.62-2.52-.37-2.79-1.58a5,5,0,0,1,1-3.51,18.2,18.2,0,0,1,4.52-5,42.82,42.82,0,0,0,4.11-3.09,5.5,5.5,0,0,0,1.85-4.6A3.82,3.82,0,0,0,251.37,236.72Zm-51-.58c-.49-.09-.69-.54-.32-.86s1.57.36,1.71.24a2.08,2.08,0,0,1-1.19.63Zm4,.92h-.09c-.37.05-.83,0-1-.28.69-1.43,2.23.1,3-.11A12.64,12.64,0,0,1,204.38,237.06Zm28.44,18.38c-.36.23-.84-.09-1.16-.39a3.12,3.12,0,0,1-.75-.91c-.87-1.8,1.63-.79,2.07.27a.85.85,0,0,1-.14,1Zm1.84-3.31-.09-.09c-.77-1,.42-2.35.73-1.06a1.33,1.33,0,0,1-.23,1c-.07.11-.18.22-.3.2Z"/><path class="cls-1" d="M192,242.31q-8.64-4.87-17.58-9.22c-.71-.34-1.95-1-2.77-.67s-.93,1-.07,1.69a4.85,4.85,0,0,0,1.76.7C179.83,236.59,185.32,241.48,192,242.31Z"/><path class="cls-1" d="M166.5,230c.75-.22,2.93,1.4,3.84.9a7.31,7.31,0,0,1-3.05.89,1,1,0,0,1-.52-.07.92.92,0,0,1-.37-.53C166.15,230.4,166.23,230.07,166.5,230Z"/><path class="cls-1" d="M179.19,214.31c7.24-4,14.49-7.77,22.44-10.21A39.23,39.23,0,0,1,179.19,214.31Z"/><path class="cls-1" d="M199.87,215.31a9.55,9.55,0,0,1-3.27-.38c2.9-2,6.37-2.83,9.53-4.33,4.47-2.13,8.25-5.47,12.6-7.82,3-1.6,6.27-2.78,8.67-5.16,4.27-4.25,5.69-15.84,13.38-15.38a1.15,1.15,0,0,1,.86.33,1.24,1.24,0,0,1,.12,1,57,57,0,0,1-2.38,10.14c-.36,1.08-.73,2.37,0,3.29a5.52,5.52,0,0,1,1.56-1.16,1.94,1.94,0,0,1,1.87.12,2.47,2.47,0,0,1,.76,1.82,9.13,9.13,0,0,1-3.3,7.68,1.41,1.41,0,0,1-.82.4c-.54,0-.93-.49-1.2-1a19.6,19.6,0,0,1-2-4.92,9.75,9.75,0,0,0-.78-2.32,2.43,2.43,0,0,0-1.94-1.31,16.3,16.3,0,0,0,.5,5.52,4.06,4.06,0,0,1,.21,2.3c-.36,1-1.57,1.52-2.63,1.85l-25.41,8A25.24,25.24,0,0,1,199.87,215.31Z"/><path class="cls-1" d="M226.44,195a2.35,2.35,0,0,1-.45,1.2,6.63,6.63,0,0,1-2.87,1.8,55.85,55.85,0,0,0-7.84,4.48l-9.14,5.92c-.26.16-.61.33-.85.14s-.17-.58-.06-.87a21.51,21.51,0,0,1,6.69-9.39c3.25-2.53,7.91-3.95,11.84-5a2.78,2.78,0,0,1,1.82-.05A1.7,1.7,0,0,1,226.44,195Z"/></g></g></svg>