<svg xmlns="http://www.w3.org/2000/svg" viewBox="0 0 28.61 44.55"><defs><style>.cls-1{fill:#1d1d1b;}</style></defs><g id="Livello_2" data-name="Livello 2"><g id="Livello_1-2" data-name="Livello 1"><path class="cls-1" d="M24.47,6.45a15.91,15.91,0,0,0-8-2.43c-3.34,0-5,1.28-5,2.74s1.65,2.74,4.38,4.93l5,4c4.87,3.72,7.79,8,7.79,13.82,0,9.13-6.39,15-14.31,15C6.69,44.55,0,39.2,0,29.76c0-7.54,5.17-12.53,11.2-15.4v-.3L9.8,13C8.4,11.81,6.09,9.68,6.09,6.88,6.09,3.59,9.43,0,16.31,0a16.78,16.78,0,0,1,9.74,2.92ZM14.3,16.86C9.68,19.29,5.42,23.25,5.42,29.7c0,6.88,4.56,10.84,9.19,10.84s8.64-4,8.64-10.65c0-4.14-1.95-7.55-5.72-10.47Z"/></g></g></svg>