<svg xmlns="http://www.w3.org/2000/svg" viewBox="0 0 23.62 52.59"><defs><style>.cls-1{fill:#1d1d1b;}</style></defs><g id="Livello_2" data-name="Livello 2"><g id="Livello_1-2" data-name="Livello 1"><path class="cls-1" d="M19.66,21.3H18C9.56,21.3,5.6,25.44,5.6,30.49S9,38.16,15,39.75a67.44,67.44,0,0,0,8.1,1.52c.36,0,.55.3.55.67A22,22,0,0,1,20,52.59l-3.53-1a21.89,21.89,0,0,0,2-6.69C10.35,43.7,0,41.27,0,31c0-5.9,4.26-10.41,9.56-11.87v-.3c-4.51-1.4-6.76-4.57-6.76-8.58C2.8,5.17,7,0,15.52,0A15,15,0,0,1,23,1.64l-1.1,3.72a13.29,13.29,0,0,0-6-1.4c-5.11,0-7.66,3.22-7.66,6.63,0,4.26,3.77,6.64,8.58,6.82h2.92Z"/></g></g></svg>