<svg xmlns="http://www.w3.org/2000/svg" viewBox="0 0 27.82 42.18"><defs><style>.cls-1{fill:#1d1d1b;}</style></defs><g id="Livello_2" data-name="Livello 2"><g id="Livello_1-2" data-name="Livello 1"><path class="cls-1" d="M.67,42.18C.12,40.35,0,36,0,31.47V17.83c0-7.6,2-11,4.26-13.45A13.55,13.55,0,0,1,14.36,0c8.22,0,13.46,6.15,13.46,15,0,10.41-6.52,15.83-13.46,15.83-3.83,0-7.18-1.58-8.88-4.32H5.3v4.74a86.46,86.46,0,0,0,.48,11ZM5.3,18.56a8.29,8.29,0,0,0,.24,2.13,8.34,8.34,0,0,0,8,5.91c5.66,0,9-4.87,9-11.51,0-5.78-3-10.65-8.52-10.65-4.2,0-8.64,3.47-8.64,11.63Z"/></g></g></svg>