<svg xmlns="http://www.w3.org/2000/svg" viewBox="0 0 27.45 55.94"><defs><style>.cls-1{fill:#1d1d1b;}</style></defs><g id="Livello_2" data-name="Livello 2"><g id="Livello_1-2" data-name="Livello 1"><path class="cls-1" d="M5.23,40.84v4.08c0,3.47.07,8.52.67,11h-5C.18,54,0,49.85,0,45.59V17.53C0,9.13,2.25,5.42,4.57,3.23A11.87,11.87,0,0,1,13.21,0,10.25,10.25,0,0,1,23.86,10.59a10.56,10.56,0,0,1-5.42,9.5v.24c4.63,1,9,4.87,9,11.62,0,8.16-6.21,12.6-12.72,12.6a12.26,12.26,0,0,1-9.37-3.71Zm-.06-5.29a10.27,10.27,0,0,0,8.59,4.86A8.11,8.11,0,0,0,22.09,32c0-5.84-4.13-8.82-9.49-9A15,15,0,0,0,11,23V19.29a6,6,0,0,0,1-.12c4.63-.3,6.94-3.89,6.94-7.79,0-4.32-2.62-7.12-6.21-7.12-4.93,0-7.55,4.26-7.55,12.66Z"/></g></g></svg>