<svg xmlns="http://www.w3.org/2000/svg" viewBox="0 0 34.39 42.18"><defs><style>.cls-1{fill:#1d1d1b;}</style></defs><g id="Livello_2" data-name="Livello 2"><g id="Livello_1-2" data-name="Livello 1"><path class="cls-1" d="M12.17,3A14.17,14.17,0,0,0,5.3,15.16c0,5.84,3.16,10.71,9.55,11.68V9c0-6.33,3.47-8.89,7.49-8.89,5.78,0,12.05,5.54,12.05,14.55,0,10.1-7.18,15.4-14.61,16.13V42.18H14.85V30.74C7.55,30.19,0,25.62,0,15.28A16.87,16.87,0,0,1,10.1,0Zm7.61,23.86c5.78-.79,9.5-5.29,9.5-12.11C29.28,8.7,25.75,4,22.34,4,20.82,4,19.78,5.3,19.78,8.1Z"/></g></g></svg>