<svg xmlns="http://www.w3.org/2000/svg" viewBox="0 0 27.57 41.51"><defs><style>.cls-1{fill:#1d1d1b;}</style></defs><g id="Livello_2" data-name="Livello 2"><g id="Livello_1-2" data-name="Livello 1"><path class="cls-1" d="M19.9,24.89A9.57,9.57,0,0,1,11.44,30C8.76,30,6.27,29,5,26.78v3.65c0,3.23.06,8.65.67,11.08H.85C.24,39.68,0,35.36,0,30.68V0H5.3V17.41c0,4.56,1.94,8.34,6.63,8.34A7.86,7.86,0,0,0,19,20.82a8,8,0,0,0,.49-2.74V0h5.29V21.36c0,3.23.67,4.51,2.8,4.63l-.42,3.89a5.16,5.16,0,0,1-1.83.25c-2.62,0-4.75-1.46-5.23-5.24Z"/></g></g></svg>