<svg xmlns="http://www.w3.org/2000/svg" viewBox="0 0 22.4 52.16"><defs><style>.cls-1{fill:#1d1d1b;}</style></defs><g id="Livello_2" data-name="Livello 2"><g id="Livello_1-2" data-name="Livello 1"><path class="cls-1" d="M14.85,51.13a21.86,21.86,0,0,0,2-6.7,44,44,0,0,1-7.18-1.64C4.32,41,0,37,0,29.22,0,20.76,5.48,10.83,14.85,4.44V4.2H10.53a29.41,29.41,0,0,1-7.06-.61L4,0a68.84,68.84,0,0,0,7.42.24H21.61L22.4,4c-9.74,4.93-17,15.33-17,24.28,0,6.51,3.1,9.19,7.54,10.77a34.47,34.47,0,0,0,8.53,1.77.72.72,0,0,1,.54.73,21.39,21.39,0,0,1-3.65,10.65Z"/></g></g></svg>