<svg xmlns="http://www.w3.org/2000/svg" viewBox="0 0 37.61 30.13"><defs><style>.cls-1{fill:#1d1d1b;}</style></defs><g id="Livello_2" data-name="Livello 2"><g id="Livello_1-2" data-name="Livello 1"><path class="cls-1" d="M21.18,19c0,3.77,2.13,6.69,5.05,6.69S32.38,21.91,32.38,14c0-5.78-2.07-11.08-4.87-13.82V0h5.05c2.62,2.25,5,7.36,5,14.12,0,11-5.53,16-11.13,16a7.92,7.92,0,0,1-7.67-5.24h-.25a8.26,8.26,0,0,1-7.79,5.24C5.66,30.13,0,25.81,0,14.61,0,8,2.56,2.56,5.17,0H10.1V.18c-2.74,2.92-4.87,8-4.87,14.31,0,8.21,3.47,11.19,6.27,11.19s4.87-3,4.87-6.63L16.25,7.79H21.3Z"/></g></g></svg>