<svg xmlns="http://www.w3.org/2000/svg" viewBox="0 0 29.58 30.8"><defs><style>.cls-1{fill:#1d1d1b;}</style></defs><g id="Livello_2" data-name="Livello 2"><g id="Livello_1-2" data-name="Livello 1"><path class="cls-1" d="M27.45.67c-.3,3.1-.79,13.21-.79,21.06,0,3.47.85,4.93,2.92,5l-.43,3.83a5.06,5.06,0,0,1-1.82.25c-2.62,0-4.75-1.71-5-6.21h-.19a11.27,11.27,0,0,1-10,6.21C5.05,30.8,0,25,0,16,0,6.39,6.33,0,13.15,0a9.4,9.4,0,0,1,9.07,5.9h.24A41.7,41.7,0,0,1,23,.67ZM13.39,26.54c3.71,0,6.94-3.59,7.85-7.49a17.14,17.14,0,0,0,.37-4.14,13,13,0,0,0-.25-3.16c-.73-4-3.65-7.55-7.54-7.55-5,0-8.4,4.93-8.4,11.62C5.42,21.42,8.28,26.54,13.39,26.54Z"/></g></g></svg>